
<svg xmlns="http://www.w3.org/2000/svg" viewBox="0 0 262 262" width="262" height="262" role="img" aria-label="Three Oak Woods badge">
  <title>Three Oak Woods — acorn &amp; oak-leaf badge (vector)</title>
  <g transform="translate(0.000000,262.000000) scale(0.100000,-0.100000)"
fill="#2C654B" stroke="none">
<path d="M172 2495 c-65 -28 -62 31 -62 -1185 0 -1221 -3 -1157 64 -1185 53
-22 2219 -22 2272 0 67 28 64 -36 64 1185 0 1221 3 1157 -64 1185 -52 22
-2224 22 -2274 0z"/>
</g>
  <g transform="translate(0.000000,262.000000) scale(0.100000,-0.100000)"
fill="#F9E7DF" stroke="none">
<path d="M1394 2411 c-34 -16 -80 -45 -101 -65 -39 -35 -41 -36 -121 -34 -71
0 -87 -3 -127 -26 -25 -15 -56 -43 -68 -62 -15 -23 -27 -32 -37 -27 -8 4 -37
8 -65 10 -42 4 -57 -1 -96 -25 -55 -35 -79 -81 -79 -150 0 -52 -9 -62 -51 -62
-11 0 -31 -11 -45 -25 -22 -22 -25 -33 -23 -78 l3 -52 -89 1 -90 2 -11 57 c-6
31 -18 64 -26 72 -13 13 -17 11 -28 -17 -11 -27 -10 -37 13 -88 14 -31 35 -90
47 -129 12 -40 30 -84 41 -97 26 -33 24 -51 -17 -161 -74 -197 -88 -279 -59
-335 18 -35 70 -76 108 -85 32 -8 32 -10 11 -82 -26 -90 -3 -193 58 -259 48
-52 102 -71 150 -55 45 16 46 15 53 -37 13 -94 26 -127 68 -171 41 -43 129
-91 166 -91 11 0 35 19 55 42 l35 43 43 -46 c71 -76 153 -108 220 -84 39 13
41 13 90 -25 53 -40 100 -58 176 -67 44 -5 51 -2 99 36 52 41 53 42 47 84 -6
42 -5 44 25 57 74 30 117 120 87 178 -15 29 -54 66 -79 75 -8 3 -2 15 16 35
58 61 45 157 -29 219 -42 34 -44 37 -28 52 12 12 18 13 21 4 13 -35 54 -82 98
-110 39 -26 60 -33 98 -33 60 0 79 10 105 54 l20 35 74 -5 c60 -5 79 -2 107
14 43 23 71 74 71 126 0 44 -30 114 -60 141 -16 15 -19 26 -14 74 6 56 6 57
-34 93 -49 44 -97 55 -170 40 -50 -11 -58 -9 -100 13 -39 21 -61 25 -129 25
-70 0 -83 3 -83 16 0 14 6 15 33 8 64 -17 139 -10 192 16 48 24 51 28 75 100
14 41 28 74 30 73 77 -25 143 -8 199 52 50 54 53 91 15 166 -22 45 -24 54 -13
86 15 47 6 128 -18 161 -33 44 -104 65 -201 59 l-83 -5 -13 32 c-19 45 -68 83
-132 102 -54 15 -82 13 -171 -12 -20 -5 -21 -3 -16 33 4 34 1 45 -27 77 -65
74 -119 83 -216 37z m146 -6 c45 -23 51 -42 40 -136 -5 -45 -8 -85 -5 -87 2
-2 32 14 66 37 71 48 104 51 169 19 33 -17 56 -40 86 -85 22 -35 43 -65 46
-68 3 -3 23 5 43 20 21 14 52 25 70 25 51 0 123 -29 162 -66 32 -30 35 -38 30
-71 -4 -26 -18 -49 -42 -71 -19 -18 -35 -36 -35 -41 0 -4 18 -16 41 -26 38
-18 69 -57 69 -89 0 -23 -51 -77 -87 -92 -43 -18 -111 -18 -147 1 -15 8 -32
15 -37 15 -14 0 -10 -22 8 -42 14 -16 15 -25 4 -73 -7 -30 -17 -58 -23 -61 -8
-5 -9 -1 -4 12 14 35 18 91 8 109 -8 15 -11 8 -17 -36 -4 -30 -11 -62 -17 -71
-11 -22 -106 -78 -132 -78 -33 0 -116 53 -138 88 -40 65 -184 132 -283 132
-24 0 -45 5 -47 11 -3 8 -17 10 -42 5 -55 -11 -113 -68 -136 -136 -16 -46 -23
-56 -45 -58 -23 -3 -26 -1 -20 17 18 56 -127 131 -254 131 -58 0 -65 -3 -92
-31 l-29 -31 -41 26 c-34 23 -49 27 -101 24 -64 -3 -87 -19 -75 -52 6 -16 8
-16 33 1 23 15 34 15 92 5 40 -6 69 -17 74 -26 5 -9 22 -16 39 -16 26 0 29 3
24 19 -10 32 27 61 79 61 60 0 168 -35 206 -66 46 -39 39 -56 -33 -79 -43 -14
-61 -25 -60 -35 2 -10 -15 -23 -45 -37 -28 -13 -74 -50 -111 -88 -34 -36 -68
-65 -76 -65 -7 0 -19 8 -26 17 -11 15 -11 16 1 6 8 -7 20 -13 27 -13 20 0 3
30 -39 68 -21 19 -38 37 -38 41 0 4 22 13 49 20 27 7 57 19 68 26 16 13 7 14
-74 15 l-91 0 -42 48 c-37 42 -159 268 -149 275 2 2 40 10 84 19 58 11 137 15
285 14 113 -1 192 1 175 5 l-30 7 35 2 c124 7 480 6 466 -2 -20 -11 -21 -28
-1 -28 8 0 53 -16 99 -35 89 -37 106 -41 106 -26 0 10 -8 14 -95 46 -44 17
-60 28 -60 41 0 21 1 21 253 44 124 11 177 23 168 38 -3 5 -76 0 -163 -10 -87
-10 -202 -17 -256 -16 -53 2 -97 0 -97 -3 0 -4 -7 -10 -16 -13 -11 -4 -14 -1
-12 12 2 10 13 17 25 17 12 0 43 19 70 41 26 22 60 49 75 58 53 35 17 34 -56
0 -40 -19 -84 -36 -97 -37 -23 -2 -103 -50 -124 -73 -13 -16 -108 -25 -171
-18 l-51 6 78 104 c48 62 75 105 69 109 -24 15 -142 -90 -185 -163 -11 -17
-28 -35 -40 -38 -11 -4 -23 -11 -26 -16 -6 -10 -305 -32 -319 -23 -4 3 -11 23
-15 45 -9 54 7 74 53 67 24 -4 35 -2 39 9 3 9 12 12 24 9 20 -7 28 18 9 30
-15 9 -12 102 5 135 32 62 122 97 170 66 14 -9 25 -25 25 -36 0 -37 20 -30 41
14 22 49 84 111 125 126 37 14 95 12 128 -5 33 -17 50 -19 41 -5 -5 8 49 100
58 100 1 0 34 11 72 25 82 29 96 30 135 10z m-428 -462 c-17 -21 -47 -54 -68
-73 l-38 -35 34 45 c45 60 82 100 93 100 5 0 -5 -17 -21 -37z m198 -335 c-11
-24 -20 -51 -20 -60 0 -25 -17 -23 -25 3 -11 33 3 67 33 83 15 9 28 15 29 16
1 0 -7 -19 -17 -42z m147 25 c-4 -3 -1 -13 6 -21 10 -13 9 -15 -6 -9 -11 4
-30 10 -44 13 -18 5 -21 9 -11 15 15 10 64 12 55 2z m-57 -59 c0 -14 25 -27
75 -40 20 -5 23 -3 18 15 -6 25 7 27 47 6 33 -17 36 -14 18 18 -10 20 -10 21
5 8 10 -7 17 -21 17 -31 0 -10 7 -23 16 -31 13 -11 14 -9 8 17 -4 16 -11 35
-17 42 -6 8 -6 12 2 12 7 0 37 -24 67 -54 54 -55 65 -85 48 -131 -6 -15 -75
-55 -121 -69 -18 -6 -22 -4 -17 8 3 9 1 16 -5 16 -6 0 -11 -7 -11 -15 0 -22
-118 -22 -126 0 -4 10 -11 12 -21 6 -22 -12 -62 -1 -62 18 0 9 -7 48 -16 87
-12 54 -13 77 -5 99 8 21 13 26 19 16 6 -9 10 -7 14 8 3 14 10 18 26 14 12 -3
21 -12 21 -19z m55 16 c3 -5 2 -10 -4 -10 -5 0 -13 5 -16 10 -3 6 -2 10 4 10
5 0 13 -4 16 -10z m-855 -185 c6 -4 8 -14 5 -24 -3 -9 2 -39 10 -67 9 -27 18
-94 21 -149 6 -121 11 -148 25 -139 8 4 9 34 4 90 -4 47 -4 108 0 136 l7 52
44 -48 c34 -36 43 -53 39 -72 -3 -13 -7 -35 -10 -49 -10 -46 18 -90 76 -119
60 -30 98 -32 159 -11 53 19 74 19 67 1 -3 -8 1 -22 8 -33 27 -35 15 -37 -14
-3 -16 19 -33 31 -37 27 -12 -12 -11 -308 1 -304 9 3 25 131 27 206 0 12 3 19
7 15 4 -5 28 -34 54 -66 26 -31 47 -61 47 -67 0 -6 11 -28 25 -49 21 -33 64
-152 79 -225 7 -30 26 -37 26 -9 -1 37 -39 165 -56 183 -9 10 -15 21 -12 24 3
3 14 -5 26 -17 101 -109 218 -212 227 -199 3 6 -16 32 -42 58 -80 79 -255 287
-245 291 7 2 119 -25 221 -54 17 -5 22 -3 19 6 -5 17 -152 69 -196 70 -49 0
-88 25 -117 73 -35 61 -33 90 10 122 19 15 39 24 45 20 6 -4 10 3 10 17 0 13
11 40 25 60 14 20 25 44 25 52 0 9 5 16 10 16 6 0 10 -13 10 -29 0 -33 43
-151 72 -199 11 -18 38 -43 61 -56 77 -44 153 -49 221 -16 l44 23 49 -28 c26
-16 65 -46 86 -67 31 -32 37 -46 37 -81 0 -53 -20 -82 -65 -97 -41 -14 -45
-27 -10 -36 14 -3 41 -25 60 -49 59 -72 42 -165 -30 -165 -19 0 -36 4 -40 10
-8 12 -32 2 -39 -17 -4 -9 0 -26 9 -39 22 -34 19 -52 -15 -86 -29 -29 -34 -30
-98 -26 -91 5 -161 39 -185 91 l-18 38 -28 -30 c-55 -58 -150 -35 -231 56 -23
26 -50 64 -58 83 l-16 35 -6 -48 c-8 -64 -28 -82 -91 -80 -65 2 -96 23 -125
88 -35 77 -48 162 -35 225 13 61 14 70 3 70 -5 0 -15 -18 -22 -41 -28 -85
-106 -105 -177 -44 -56 47 -73 89 -73 172 1 71 17 132 44 162 20 22 21 51 2
51 -7 0 -20 -9 -27 -21 -11 -16 -19 -18 -38 -11 l-24 9 23 16 c28 20 21 33
-10 17 -33 -18 -57 -3 -76 45 -12 32 -15 59 -10 95 8 59 61 241 82 282 l15 29
49 -70 c27 -38 54 -72 60 -76z m630 74 c0 -5 -4 -9 -10 -9 -5 0 -10 7 -10 16
0 8 5 12 10 9 6 -3 10 -10 10 -16z m-111 -32 c8 -11 5 -13 -19 -9 -16 2 -27 8
-24 13 8 13 30 11 43 -4z m151 -16 c5 -11 10 -32 10 -48 0 -26 -2 -24 -20 16
-23 50 -23 51 -10 51 5 0 14 -9 20 -19z m-53 -18 c13 -14 23 -33 23 -42 -1
-11 -5 -7 -15 9 -7 14 -16 23 -20 20 -6 -5 -25 19 -25 33 0 14 15 7 37 -20z
m-138 -8 c16 -8 49 -37 74 -65 37 -41 45 -56 44 -87 -1 -38 -29 -92 -79 -151
-31 -37 -35 -38 -41 -14 -3 11 -7 7 -12 -15 -6 -27 -14 -35 -44 -43 -77 -21
-183 -1 -217 41 -18 22 -27 59 -15 59 6 0 11 -7 11 -15 0 -17 25 -21 35 -5 3
5 12 7 20 3 10 -3 15 1 15 13 0 10 17 36 38 57 26 28 30 36 14 28 -19 -10 -24
-9 -32 11 -9 20 -10 19 -6 -9 3 -18 1 -35 -5 -38 -10 -7 -39 53 -39 84 0 25
120 127 160 136 16 4 32 11 35 16 8 12 11 12 44 -6z m829 -29 c23 -8 58 -33
79 -56 l39 -41 14 26 c33 61 113 63 172 5 44 -45 34 -103 -22 -115 -39 -9 -40
-35 -1 -35 59 0 111 -67 111 -145 0 -43 -2 -47 -47 -76 -42 -27 -54 -30 -98
-25 -27 3 -62 8 -76 11 -24 6 -27 4 -33 -33 -3 -22 -13 -48 -22 -56 -20 -20
-53 -21 -60 -1 -4 8 -18 15 -34 15 -44 0 -130 70 -144 118 -8 25 -28 29 -46 7
-15 -18 -51 -20 -67 -4 -7 7 -10 30 -7 58 5 38 0 56 -24 104 -16 31 -25 57
-21 57 21 0 39 -14 39 -31 0 -11 17 -30 39 -44 21 -15 60 -53 87 -86 42 -53
64 -71 64 -53 0 4 -20 35 -45 69 -24 34 -42 65 -39 68 3 3 24 -3 47 -13 32
-14 46 -30 64 -66 27 -57 49 -82 38 -44 -4 14 -14 34 -21 45 -25 35 -15 36 46
5 59 -30 97 -39 85 -20 -3 5 -99 57 -213 116 -114 58 -225 118 -247 132 -35
22 -37 26 -20 33 11 4 43 16 70 27 64 26 192 61 226 61 15 1 45 -5 67 -13z
m-608 -46 c-24 -15 -37 -11 -16 5 11 8 22 12 25 9 3 -3 -1 -9 -9 -14z m-648
-32 c-8 -8 -12 -9 -12 -1 0 6 -3 20 -6 30 -7 17 -6 17 12 1 14 -14 15 -20 6
-30z m714 -3 c16 -12 17 -14 2 -15 -23 0 -48 11 -48 21 0 14 24 11 46 -6z m59
1 c43 -18 44 -26 5 -26 -19 0 -33 7 -40 20 -13 24 -10 24 35 6z m-115 -34 c0
-13 -12 -22 -22 -16 -10 6 -1 24 13 24 5 0 9 -4 9 -8z m70 -14 c0 -13 -53 -6
-57 8 -2 7 8 9 27 6 16 -2 30 -9 30 -14z m169 -37 c47 -38 101 -114 101 -141
0 -9 -8 -33 -18 -54 -33 -67 -113 -99 -140 -56 -7 11 -18 20 -26 20 -7 0 -21
9 -31 20 -10 11 -13 20 -8 20 11 0 24 56 15 64 -2 3 -12 0 -22 -6 -14 -9 -22
-9 -34 1 -13 11 -17 11 -22 -2 -3 -9 -12 -13 -21 -10 -12 5 -14 3 -8 -7 5 -9
4 -11 -3 -6 -6 4 -9 21 -6 39 4 28 3 29 -6 9 -13 -29 -30 -20 -30 17 0 29 32
67 48 57 5 -3 22 8 38 25 15 16 34 27 40 25 7 -3 17 1 23 8 20 24 64 15 110
-23z m-723 -8 c1 -21 4 -48 9 -60 12 -35 -8 -27 -29 12 -18 32 -18 36 -2 60 9
14 18 25 19 25 2 0 3 -17 3 -37z m484 13 c0 -8 -4 -18 -10 -21 -5 -3 -10 3
-10 14 0 12 5 21 10 21 6 0 10 -6 10 -14z m-30 -22 c0 -8 -4 -14 -10 -14 -5 0
-10 9 -10 21 0 11 5 17 10 14 6 -3 10 -13 10 -21z m-424 -11 c17 -23 17 -33 0
-33 -7 0 -16 11 -18 25 -6 29 0 32 18 8z m494 -175 c0 -5 -9 -4 -20 2 -11 6
-20 18 -20 27 0 14 2 14 20 -2 11 -10 20 -22 20 -27z m55 32 c3 -5 1 -10 -4
-10 -6 0 -11 5 -11 10 0 6 2 10 4 10 3 0 8 -4 11 -10z m35 -60 c28 -25 31 -30
14 -30 -16 0 -42 13 -73 36 -5 4 9 24 17 24 4 -1 23 -14 42 -30z m-280 -173
c0 -13 -29 12 -42 37 -10 19 -8 18 16 -3 14 -14 26 -29 26 -34z"/>
<path d="M1339 2048 c-38 -40 -69 -77 -69 -82 0 -6 3 -6 8 0 4 5 39 42 77 82
37 39 65 72 61 72 -5 0 -39 -33 -77 -72z"/>
<path d="M1445 2034 c-43 -40 -44 -42 -9 -15 37 27 72 61 63 61 -2 0 -26 -21
-54 -46z"/>
<path d="M853 1975 c-39 -41 -68 -75 -65 -75 4 0 41 34 82 75 41 41 70 75 65
75 -6 0 -42 -34 -82 -75z"/>
<path d="M2016 2004 c-11 -8 -30 -14 -43 -14 -13 0 -23 -4 -23 -8 0 -5 -51
-28 -112 -52 -62 -24 -117 -48 -123 -52 -5 -5 28 5 75 23 47 18 114 43 150 56
64 24 108 49 99 57 -2 2 -13 -2 -23 -10z"/>
<path d="M1780 1970 c-19 -11 -31 -19 -27 -20 11 0 67 29 67 35 0 7 -1 7 -40
-15z"/>
<path d="M1660 1910 c-9 -6 -10 -10 -3 -10 6 0 15 5 18 10 8 12 4 12 -15 0z"/>
<path d="M1085 1769 c-22 -3 -33 -7 -25 -8 8 -1 38 -19 65 -41 28 -22 52 -35
54 -28 2 6 -6 18 -17 27 -12 9 -25 25 -29 36 -7 17 -14 19 -48 14z"/>
<path d="M2088 1763 c18 -2 45 -2 60 0 15 2 0 4 -33 4 -33 0 -45 -2 -27 -4z"/>
<path d="M622 1733 c2 -23 14 -33 58 -55 53 -27 100 -33 90 -13 -2 6 -10 9
-17 7 -21 -5 -71 26 -95 58 -27 37 -40 38 -36 3z"/>
<path d="M808 1753 c7 -3 16 -2 19 1 4 3 -2 6 -13 5 -11 0 -14 -3 -6 -6z"/>
<path d="M1624 1469 c3 -8 9 -22 12 -31 4 -10 10 -18 15 -18 16 0 10 19 -12
41 -12 12 -19 15 -15 8z"/>
<path d="M512 1370 c0 -14 2 -19 5 -12 2 6 2 18 0 25 -3 6 -5 1 -5 -13z"/>
<path d="M740 1035 c0 -9 7 -27 16 -40 9 -13 22 -46 29 -72 9 -32 14 -40 14
-23 1 29 -40 150 -51 150 -5 0 -8 -7 -8 -15z"/>
<path d="M1170 950 c0 -5 5 -10 10 -10 6 0 10 5 10 10 0 6 -4 10 -10 10 -5 0
-10 -4 -10 -10z"/>
<path d="M850 893 c0 -4 5 -15 10 -23 8 -13 10 -13 10 2 0 9 -4 20 -10 23 -5
3 -10 3 -10 -2z"/>
<path d="M1130 617 c0 -8 6 -20 14 -26 12 -10 13 -8 9 9 -7 25 -23 37 -23 17z"/>
<path d="M981 560 c0 -8 4 -22 9 -30 12 -18 12 -2 0 25 -6 13 -9 15 -9 5z"/>
<path d="M1004 1354 c3 -8 6 -18 6 -20 0 -2 5 -4 10 -4 16 0 11 27 -6 34 -12
5 -15 2 -10 -10z"/>
<path d="M952 1352 c-7 -5 -22 -25 -33 -46 -16 -30 -17 -40 -7 -59 l12 -22 6
25 c6 24 6 24 17 5 10 -17 11 -12 10 30 -2 43 1 50 16 49 10 -1 16 3 14 9 -5
15 -19 18 -35 9z"/>
<path d="M1982 1089 c2 -7 24 -17 49 -21 60 -11 74 -3 21 11 -24 7 -50 15 -59
18 -11 4 -14 2 -11 -8z"/>
<path d="M1470 1051 c0 -11 5 -23 10 -26 6 -3 10 3 10 14 0 11 -4 23 -10 26
-5 3 -10 -3 -10 -14z"/>
<path d="M1572 1010 c0 -14 2 -19 5 -12 2 6 2 18 0 25 -3 6 -5 1 -5 -13z"/>
</g>
</svg>

